<?xml version="1.0" encoding="utf-8"?>
<!-- Svg Vector Icons : http://www.onlinewebfonts.com/icon -->
<!DOCTYPE svg PUBLIC "-//W3C//DTD SVG 1.1//EN" "http://www.w3.org/Graphics/SVG/1.1/DTD/svg11.dtd">
<svg version="1.1" xmlns="http://www.w3.org/2000/svg" xmlns:xlink="http://www.w3.org/1999/xlink" x="0px" y="0px" viewBox="0 0 1000 1000" enable-background="new 0 0 1000 1000" xml:space="preserve">
<metadata> Svg Vector Icons : http://www.onlinewebfonts.com/icon </metadata>
<g><g transform="translate(0.000000,511.000000) scale(0.100000,-0.100000)"><path d="M4847.1,4871.2v-167.7l-115.1-24.2c-343.4-72.7-707-361.6-870.6-692.9c-46.5-94.9-97-224.2-109.1-286.8l-24.2-115.1h-167.7h-167.7v-161.6v-161.6h161.6h161.6v-404v-404h-161.6h-161.6v-161.6V2130h161.6h161.6v-161.6v-161.6h-161.6h-161.6v-161.6v-161.6h151.5h151.5V1417c0-38.4-62.6-925.2-141.4-1973.6C3477.5-1605,3412.9-2483.7,3412.9-2510c0-44.4-6.1-46.5-171.7-46.5h-171.7v-646.4v-644.4l-802-6.1l-804-6.1l-127.3-68.7c-68.7-38.4-153.5-99-185.8-137.4c-80.8-90.9-157.6-246.4-173.7-347.5l-14.1-82.8h-400h-402v-161.6v-161.6h4848.1h4848.1v161.6v161.6H5572.3H1285.8l12.1,72.7c14.1,88.9,58.6,157.6,129.3,204c50.5,34.3,224.2,36.4,2864.4,46.5l2807.9,10.1l159.6,56.6c234.3,82.8,321.2,141.4,571.7,383.8c171.7,165.6,258.6,232.3,363.6,282.8l137.3,64.6l763.6,6.1l761.6,6.1v161.6v159.6h-698.9c-569.6,0-723.2-6.1-842.4-32.3c-290.9-66.7-503-195.9-735.3-450.5c-145.4-161.6-252.5-230.3-432.3-286.8c-220.2-68.7-200-131.3-200,608v646.4h-171.7c-165.7,0-171.7,2-171.7,46.5c0,24.2-62.6,898.9-141.4,1943.3c-76.8,1044.4-141.4,1933.2-141.4,1975.6v74.7h151.5h151.5v161.6v161.6h-161.6h-161.6v161.6V2130h161.6h161.6v161.6v161.6h-161.6h-161.6v404v404h161.6h161.6v161.6v161.6h-167.7h-167.7l-24.2,115.1c-72.7,343.4-361.6,707-692.9,870.6c-94.9,46.5-224.2,97-286.8,109.1l-115.1,24.2v167.7v167.7h-161.6h-161.6V4871.2z M5261.2,4362.2c173.7-46.5,339.4-141.4,454.5-264.6c107.1-113.1,216.2-315.1,236.3-440.4l12.1-72.7h-955.5h-955.5l12.1,72.7c20.2,125.2,129.3,327.2,236.3,440.4C4534,4344,4919.8,4451.1,5261.2,4362.2z M4847.1,3018.9v-242.4h161.6h161.6v242.4v242.4h404h404v-404v-404h-969.6h-969.6v404v404h404h404V3018.9z M5978.3,1968.4v-161.6h-969.6h-969.6v161.6V2130h969.6h969.6V1968.4z M4697.6,1178.6c-387.9-165.6-707-299-711.1-294.9c-4,2,2,109.1,12.1,236.3c10.1,127.3,20.2,262.6,20.2,299v64.6h692.9l690.9-2L4697.6,1178.6z M6004.6,1287.7c24.2-204,82.8-1117.1,70.7-1127.2c-36.4-36.4-2207.9-951.4-2211.9-931.2c-4,12.1,16.2,303,42.4,648.4c34.3,472.7,52.5,628.2,74.7,642.4c32.3,18.2,1979.6,858.5,1999.8,860.5C5988.4,1382.6,5998.5,1340.2,6004.6,1287.7z M6119.7-217.2c0-14.2,18.2-284.8,42.4-597.9c24.2-319.2,34.3-581.8,26.3-589.9c-28.3-28.3-2434.2-1054.5-2446.3-1044.4c-10.1,12.1,82.8,1282.7,97,1292.8c18.2,18.2,2232.1,961.5,2256.4,961.5C6107.6-193,6119.7-205.1,6119.7-217.2z M6261.1-2142.3c14.1-218.2,22.2-400,16.2-404c-6.1-6.1-438.3-8.1-963.6-6.1l-955.5,6.1l927.2,397.9c509.1,218.2,931.2,397.9,937.3,400C6228.8-1748.4,6247-1926.2,6261.1-2142.3z M6624.7-3364.5v-484.8h-482.8h-480.8l-12.1,159.6c-18.2,268.7-141.4,456.5-383.8,581.8c-86.9,46.5-131.3,54.5-256.5,54.5c-183.8,0-309.1-52.5-444.4-189.9c-129.3-127.3-185.8-258.6-198-448.4l-10.1-157.6h-480.8h-482.8v484.8v484.8h1616h1616V-3364.5z M5206.6-3417c84.8-62.6,125.2-161.6,125.2-305v-127.3h-325.2h-325.2l8.1,149.5c8.1,171.7,44.4,240.4,159.6,301C4940-3350.3,5127.9-3360.4,5206.6-3417z"/><path d="M203,4653.1c-10.1-26.3-36.4-90.9-60.6-143.4c-22.2-52.5-32.3-101-22.2-107.1c56.6-34.3,2714.9-1119.1,2723-1111c6.1,6.1,36.4,68.7,66.7,141.4c50.5,119.2,52.5,133.3,22.2,149.5c-26.3,14.1-2583.6,1068.6-2684.6,1107C233.3,4695.5,213.1,4677.3,203,4653.1z"/><path d="M8473,4160.2c-711.1-294.9-1321.1-547.4-1357.5-563.6l-64.6-30.3l56.6-133.3c30.3-72.7,60.6-135.3,66.7-141.4c8.1-8.1,2668.5,1076.7,2723,1111c20.2,12.1-86.9,278.8-115.1,284.8C9774,4691.4,9184.1,4453.1,8473,4160.2z"/><path d="M1524.1,1897.7C813.1,1602.8,201,1350.3,166.7,1334.1l-66.7-32.3l54.5-125.2c28.3-70.7,58.6-133.3,66.7-143.4c10.1-10.1,2652.3,1060.5,2727.1,1107c18.2,12.1-88.9,278.8-115.1,286.9C2825,2429,2235.2,2190.6,1524.1,1897.7z"/><path d="M7156,2400.7c-6.1-22.2-34.3-86.9-58.6-143.4c-42.4-99-44.4-109.1-12.1-125.2c70.7-36.4,2662.4-1098.9,2686.6-1100.9c14.1,0,52.5,58.6,82.8,135.3c52.5,123.2,56.6,137.4,26.3,153.5c-26.3,14.1-2585.6,1068.6-2684.6,1107C7182.2,2433,7164.1,2420.9,7156,2400.7z"/></g></g>
</svg>